{"glyphs":{"0":{"ha":791,"x_min":60,"x_max":731,"o":"m 60 509 q 395 1017 60 1017 q 731 509 731 1017 q 395 0 731 0 q 60 509 60 0 m 629 509 q 395 916 629 916 q 161 509 161 916 q 395 102 161 102 q 629 509 629 102 z "},"1":{"ha":646,"x_min":153,"x_max":533,"o":"m 292 795 l 153 795 l 153 859 q 317 1017 297 859 l 394 1017 l 394 102 l 533 102 l 533 0 l 153 0 l 153 102 l 292 102 l 292 795 z "},"2":{"ha":766,"x_min":74,"x_max":705,"o":"m 412 489 q 603 714 603 572 q 389 916 603 916 q 176 714 176 916 l 74 714 q 389 1017 74 1017 q 705 714 705 1017 q 446 391 705 503 l 316 335 q 176 102 176 277 l 705 102 l 705 0 l 74 0 l 74 102 q 282 433 74 345 l 412 489 z "},"3":{"ha":775,"x_min":66,"x_max":696,"o":"m 381 584 q 574 750 574 584 q 381 916 574 916 q 188 750 188 916 l 86 750 q 381 1017 86 1017 q 676 751 676 1017 q 584 536 676 602 q 696 292 696 467 q 381 0 696 0 q 66 294 66 0 l 168 294 q 381 102 168 102 q 595 294 595 102 q 381 485 595 485 l 328 485 l 328 584 l 381 584 z "},"4":{"ha":740,"x_min":27,"x_max":705,"o":"m 473 835 l 150 352 l 473 352 l 473 835 m 473 1017 l 575 1017 l 575 352 l 705 352 l 705 250 l 575 250 l 575 0 l 473 0 l 473 250 l 27 250 l 27 352 l 473 1017 z "},"5":{"ha":777,"x_min":84,"x_max":705,"o":"m 705 339 q 408 0 705 0 q 84 269 118 0 l 186 269 q 408 102 220 102 q 603 339 603 102 q 415 576 603 576 q 220 490 278 576 l 121 490 l 169 1017 l 657 1017 l 657 916 l 260 916 l 235 644 q 415 678 308 678 q 705 339 705 678 z "},"6":{"ha":734,"x_min":58,"x_max":688,"o":"m 165 389 q 373 102 194 102 q 587 322 587 102 q 373 543 587 543 q 165 389 195 543 m 373 0 q 58 509 58 0 q 407 1017 58 1017 q 688 779 688 1017 l 587 779 q 407 916 587 916 q 162 586 184 916 q 373 644 239 644 q 688 322 688 644 q 373 0 688 0 z "},"7":{"ha":748,"x_min":67,"x_max":698,"o":"m 698 916 l 336 0 l 227 0 l 589 916 l 67 916 l 67 1017 l 698 1017 l 698 916 z "},"8":{"ha":731,"x_min":50,"x_max":681,"o":"m 366 916 q 172 746 172 916 q 366 576 172 576 q 559 746 559 576 q 366 916 559 916 m 366 475 q 152 288 152 475 q 366 102 152 102 q 579 288 579 102 q 366 475 579 475 m 161 529 q 71 746 71 595 q 366 1017 71 1017 q 661 746 661 1017 q 570 529 661 595 q 681 288 681 459 q 366 0 681 0 q 50 288 50 0 q 161 529 50 459 z "},"9":{"ha":734,"x_min":45,"x_max":676,"o":"m 569 629 q 361 916 540 916 q 147 695 147 916 q 361 475 147 475 q 569 629 539 475 m 361 1017 q 676 509 676 1017 q 327 0 676 0 q 45 239 45 0 l 147 239 q 327 102 147 102 q 572 431 549 102 q 361 373 495 373 q 45 695 45 373 q 361 1017 45 1017 z "}," ":{"ha":386,"x_min":0,"x_max":0,"o":""},"!":{"ha":591,"x_min":305,"x_max":422,"o":"m 415 1013 l 415 543 l 388 233 l 340 233 l 313 543 l 313 1013 l 415 1013 m 422 144 l 422 0 l 305 0 l 305 144 l 422 144 z "},"\"":{"ha":493,"x_min":72,"x_max":423,"o":"m 72 985 l 201 985 l 201 831 l 163 644 l 109 644 l 72 831 l 72 985 m 294 985 l 423 985 l 423 831 l 386 644 l 332 644 l 294 831 l 294 985 z "},"#":{"ha":772,"x_min":19,"x_max":752,"o":"m 673 968 l 623 696 l 752 696 l 752 602 l 605 602 l 562 359 l 708 359 l 708 265 l 545 265 l 491 -27 l 386 -27 l 438 265 l 267 265 l 212 -27 l 106 -27 l 159 265 l 19 265 l 19 359 l 177 359 l 220 602 l 71 602 l 71 696 l 239 696 l 288 968 l 394 968 l 344 696 l 517 696 l 566 968 l 673 968 m 500 602 l 328 602 l 283 359 l 456 359 l 500 602 z "},"$":{"ha":772,"x_min":47,"x_max":722,"o":"m 340 1069 l 422 1069 l 422 994 q 662 852 597 982 q 691 734 688 800 l 691 721 l 582 721 q 501 875 581 828 q 440 896 473 890 q 422 897 431 897 l 422 551 q 604 485 561 509 q 722 271 722 418 q 627 41 722 126 q 594 17 612 28 q 422 -32 526 -23 l 422 -175 l 340 -175 l 340 -32 q 66 144 126 -18 q 47 264 47 199 q 48 289 47 277 l 158 289 q 187 153 168 186 q 193 143 190 149 q 340 64 241 77 l 340 441 q 165 514 211 481 q 66 717 66 585 q 260 978 66 920 q 340 994 297 989 l 340 1069 m 340 562 l 340 896 q 183 772 207 878 q 179 730 179 753 q 340 562 179 606 m 422 429 l 422 64 q 549 115 507 74 q 608 254 608 171 q 543 380 608 339 q 422 429 503 406 z "},"%":{"ha":1234,"x_min":40,"x_max":1193,"o":"m 276 951 q 464 860 393 951 l 489 821 q 513 711 513 770 q 426 530 513 602 q 277 476 361 476 q 93 564 165 476 q 40 714 40 631 q 127 899 40 827 q 276 951 193 951 m 276 854 q 159 790 201 854 l 143 758 q 136 714 136 736 q 198 597 136 640 q 277 574 235 574 q 394 636 353 574 q 418 713 418 671 q 351 833 418 791 q 276 854 318 854 m 846 985 l 937 985 l 389 -27 l 297 -27 l 846 985 m 956 447 q 1144 355 1074 447 q 1193 208 1193 292 q 1105 28 1193 98 q 957 -26 1040 -26 q 772 61 844 -26 q 719 211 719 127 q 808 395 719 323 q 956 447 873 447 m 956 350 q 839 288 880 350 q 815 211 815 253 q 880 93 815 135 q 957 71 915 71 q 1074 134 1031 71 q 1097 208 1097 168 q 1030 329 1097 288 l 998 343 q 956 350 977 350 z "},"&":{"ha":926,"x_min":72,"x_max":884,"o":"m 684 464 l 795 464 q 715 210 795 334 l 884 0 l 733 0 l 647 109 q 540 18 579 41 q 357 -32 462 -32 q 118 82 195 -32 q 72 244 72 150 q 144 431 72 357 q 297 541 194 481 q 187 729 199 663 q 184 766 184 747 q 275 939 184 873 q 422 985 338 985 q 611 893 547 985 l 631 854 q 647 791 644 825 q 648 766 648 779 q 572 603 648 671 q 456 525 532 567 l 642 298 q 684 458 684 374 l 684 464 m 395 599 q 529 721 508 669 q 538 770 538 742 q 476 873 538 842 q 418 888 450 888 q 307 818 334 888 q 298 768 298 796 q 333 673 298 722 l 395 599 m 581 191 l 358 468 q 199 315 227 385 q 189 254 189 288 q 264 111 189 164 q 370 77 312 77 q 558 167 464 77 q 581 191 569 178 z "},"'":{"ha":265,"x_min":66,"x_max":197,"o":"m 66 985 l 197 985 l 197 831 l 159 644 l 104 644 l 66 831 l 66 985 z "},"(":{"ha":777,"x_min":170,"x_max":472,"o":"m 396 1013 l 472 1013 q 283 416 300 734 q 282 359 282 387 q 452 -259 282 36 q 472 -294 461 -277 l 396 -294 q 188 178 239 -89 q 170 359 170 272 q 298 857 170 608 q 396 1013 342 942 z "},")":{"ha":777,"x_min":305,"x_max":608,"o":"m 382 -294 l 305 -294 q 494 301 477 -16 q 496 358 496 330 q 326 978 496 682 q 305 1013 316 996 l 382 1013 q 590 541 538 807 q 608 358 608 446 q 479 -138 608 110 q 382 -294 436 -223 z "},"*":{"ha":896,"x_min":305,"x_max":726,"o":"m 472 1013 l 559 1013 l 553 857 l 700 909 l 726 828 l 576 786 l 673 663 l 602 612 l 516 742 l 429 612 l 359 663 l 455 786 l 305 828 l 332 909 l 479 857 l 472 1013 z "},"+":{"ha":811,"x_min":69,"x_max":741,"o":"m 741 371 l 741 273 l 454 273 l 454 -14 l 357 -14 l 357 273 l 69 273 l 69 371 l 357 371 l 357 659 l 454 659 l 454 371 l 741 371 z "},",":{"ha":386,"x_min":121,"x_max":267,"o":"m 121 144 l 267 144 l 267 -22 q 121 -204 267 -204 l 121 -151 q 195 -105 180 -149 q 204 -24 204 -79 l 204 0 l 121 0 l 121 144 z "},"-":{"ha":462,"x_min":64,"x_max":394,"o":"m 394 433 l 394 334 l 64 334 l 64 433 l 394 433 z "},".":{"ha":386,"x_min":121,"x_max":265,"o":"m 265 144 l 265 0 l 121 0 l 121 144 l 265 144 z "},"/":{"ha":386,"x_min":-11,"x_max":395,"o":"m 318 1013 l 395 1013 l 66 -27 l -11 -27 l 318 1013 z "},":":{"ha":386,"x_min":153,"x_max":297,"o":"m 297 144 l 297 0 l 153 0 l 153 144 l 297 144 m 297 728 l 297 583 l 153 583 l 153 728 l 297 728 z "},";":{"ha":386,"x_min":153,"x_max":298,"o":"m 298 728 l 298 583 l 154 583 l 154 728 l 298 728 m 153 144 l 298 144 l 298 -22 q 153 -204 298 -204 l 153 -151 q 227 -105 212 -149 q 236 -24 236 -79 l 236 0 l 153 0 l 153 144 z "},"<":{"ha":811,"x_min":62,"x_max":741,"o":"m 62 275 l 62 371 l 741 659 l 741 549 l 195 325 l 741 97 l 741 -12 l 62 275 z "},"=":{"ha":811,"x_min":69,"x_max":741,"o":"m 741 490 l 741 393 l 69 393 l 69 490 l 741 490 m 741 252 l 741 154 l 69 154 l 69 252 l 741 252 z "},">":{"ha":811,"x_min":69,"x_max":748,"o":"m 748 371 l 748 275 l 69 -12 l 69 97 l 616 321 l 69 549 l 69 659 l 748 371 z "},"?":{"ha":1075,"x_min":305,"x_max":905,"o":"m 656 277 l 532 277 l 532 353 q 570 473 532 422 q 643 550 594 504 q 676 579 652 558 q 780 762 779 671 q 695 901 780 860 l 652 916 q 602 921 629 921 q 447 840 488 921 q 423 704 423 793 l 305 704 q 368 931 305 850 q 555 1026 431 1012 q 610 1029 582 1029 q 862 914 785 1029 l 884 872 q 905 762 905 822 q 834 583 905 665 q 766 514 808 551 q 665 396 679 433 q 656 342 656 375 l 656 277 m 656 144 l 656 0 l 532 0 l 532 144 l 656 144 z "},"@":{"ha":1409,"x_min":47,"x_max":1320,"o":"m 923 696 l 1038 696 l 913 307 q 897 237 897 258 q 937 182 897 200 q 966 176 951 176 q 1128 277 1055 176 q 1200 496 1200 375 q 1065 786 1200 663 q 732 922 927 914 l 711 922 q 349 781 507 922 l 302 733 q 165 379 165 576 q 311 49 165 183 q 686 -90 460 -90 q 954 -45 795 -90 l 993 -138 q 679 -197 837 -197 q 247 -48 429 -197 q 51 294 77 90 q 47 358 47 326 q 179 753 47 572 q 267 850 218 807 q 626 1021 416 986 q 729 1029 677 1029 q 1130 889 960 1029 q 1316 571 1291 758 q 1320 513 1320 542 q 1201 203 1320 345 q 943 79 1095 79 q 790 186 809 79 q 593 86 699 86 q 414 182 479 86 q 366 340 366 250 q 476 608 366 492 q 723 725 583 724 q 892 604 840 725 l 923 696 m 715 636 q 554 538 623 636 q 491 339 491 450 q 557 199 491 245 q 629 175 590 175 q 770 265 709 175 q 838 449 817 332 q 846 503 844 479 l 846 512 q 789 616 846 581 q 715 636 755 636 z "},"ក":{"ha":814,"x_min":102,"x_max":712,"o":"m 102 848 l 102 1017 l 712 1017 l 712 848 l 102 848 m 509 0 l 509 543 q 407 610 509 610 q 305 543 305 610 l 305 0 l 102 0 l 102 543 q 407 746 102 746 q 712 543 712 746 l 712 0 l 509 0 z "},"ខ":{"ha":814,"x_min":102,"x_max":712,"o":"m 305 523 q 509 712 509 592 l 509 814 q 407 882 509 882 q 305 814 305 882 l 305 746 l 339 746 l 339 610 l 203 610 q 102 678 102 610 l 102 814 q 407 1017 102 1017 q 712 814 712 1017 l 712 712 q 356 397 712 517 l 305 379 l 305 203 q 407 136 305 136 q 509 203 509 136 l 509 407 l 712 407 l 712 203 q 407 0 712 0 q 102 203 102 0 l 102 454 l 305 523 z "},"គ":{"ha":814,"x_min":102,"x_max":712,"o":"m 102 848 l 102 1017 l 712 1017 l 712 848 l 102 848 m 305 18 l 305 0 l 102 0 l 102 543 q 407 746 102 746 q 712 543 712 746 l 712 0 l 509 0 l 509 543 q 407 610 509 610 q 305 543 305 610 l 305 233 l 372 357 l 462 308 l 305 18 z "},"ឃ":{"ha":1221,"x_min":34,"x_max":1119,"o":"m 305 203 q 407 136 305 136 q 509 203 509 136 l 509 1017 l 712 1017 l 712 203 q 814 136 712 136 q 916 203 916 136 l 916 1017 l 1119 1017 l 1119 203 q 814 0 1119 0 q 610 37 685 0 q 407 0 536 0 q 102 203 102 0 l 102 814 q 34 882 102 882 l 34 1017 l 170 1017 q 305 882 305 1017 l 305 203 z "},"ង":{"ha":814,"x_min":68,"x_max":712,"o":"m 292 746 q 102 949 102 746 l 102 1085 l 305 1085 l 305 949 q 373 882 305 882 l 475 882 q 593 1017 475 1017 q 712 882 712 1017 q 692 814 712 846 q 635 764 672 782 q 597 750 616 755 l 712 678 l 712 68 q 612 0 712 0 l 509 0 l 407 99 l 305 0 l 201 0 q 102 68 102 0 l 102 475 q 68 543 102 543 l 68 678 l 170 678 q 305 576 305 678 l 305 199 l 407 298 l 509 199 l 509 746 l 292 746 z "},"ច":{"ha":814,"x_min":68,"x_max":712,"o":"m 712 203 q 407 0 712 0 q 102 203 102 0 l 102 576 q 170 665 102 631 l 68 710 l 68 1017 l 712 1017 l 712 848 l 217 848 l 217 802 l 339 746 l 339 610 q 305 549 305 610 l 305 203 q 407 136 305 136 q 509 203 509 136 l 509 576 q 407 644 407 576 l 407 678 q 509 746 407 746 l 610 746 q 712 678 712 746 l 712 203 z "},"ឆ":{"ha":814,"x_min":68,"x_max":712,"o":"m 712 136 q 610 0 712 0 l 509 0 q 456 101 509 66 q 339 136 404 136 l 305 136 q 203 0 305 0 q 68 136 68 0 q 86 203 68 171 q 137 254 104 236 q 192 271 163 269 l 102 305 l 102 576 q 170 665 102 631 l 68 710 l 68 1017 l 712 1017 l 712 848 l 217 848 l 217 802 l 339 746 l 339 610 q 305 549 305 610 l 305 271 l 339 271 q 509 231 439 271 l 509 576 q 407 644 407 576 l 407 678 q 509 746 407 746 l 610 746 q 712 678 712 746 l 712 136 z "},"ជ":{"ha":814,"x_min":68,"x_max":712,"o":"m 305 199 l 407 298 l 509 199 l 509 746 l 712 746 l 712 68 q 612 0 712 0 l 509 0 l 407 99 l 305 0 l 201 0 q 102 68 102 0 l 102 576 q 170 665 102 631 l 68 703 l 68 1017 l 509 1017 l 509 1085 l 712 1085 l 712 848 l 217 848 l 217 802 l 373 746 l 373 610 q 305 549 305 610 l 305 199 z "},"ឈ":{"ha":1628,"x_min":102,"x_max":1526,"o":"m 1119 203 q 1221 136 1119 136 q 1322 203 1322 136 l 1322 1017 l 1526 1017 l 1526 203 q 1221 0 1526 0 q 1017 37 1092 0 q 814 0 943 0 q 509 203 509 0 l 509 814 q 407 882 509 882 q 305 814 305 882 l 305 203 q 407 136 305 136 l 407 0 l 254 0 q 102 203 102 0 l 102 814 q 407 1017 102 1017 q 712 814 712 1017 l 712 203 q 814 136 712 136 q 916 203 916 136 l 916 1017 l 1119 1017 l 1119 203 z "},"ញ":{"ha":1221,"x_min":102,"x_max":1119,"o":"m 102 -136 l 271 -136 q 749 -339 507 -136 l 916 -339 l 916 -237 l 814 -237 l 814 -68 l 983 -68 q 1119 -203 1119 -68 l 1119 -339 q 983 -475 1119 -475 l 652 -475 q 271 -305 439 -305 l 102 -305 l 102 -136 m 916 0 l 916 780 q 814 848 916 848 l 746 848 l 746 1017 l 814 1017 q 1119 814 1119 1017 l 1119 0 l 916 0 m 305 203 q 407 136 407 203 l 407 68 q 305 0 407 0 l 203 0 q 102 68 102 0 l 102 949 q 201 1017 102 1017 l 305 1017 l 407 918 l 509 1017 l 612 1017 q 712 949 712 1017 l 712 0 l 509 0 l 509 819 l 407 720 l 305 819 l 305 203 z "},"ដ":{"ha":814,"x_min":102,"x_max":712,"o":"m 102 1017 l 339 1017 l 339 949 l 305 949 l 305 916 l 509 916 l 509 1085 l 712 1085 l 712 882 q 610 780 712 780 l 102 780 l 102 1017 m 305 712 l 305 199 l 407 298 l 509 199 l 509 712 l 712 712 l 712 68 q 612 0 712 0 l 509 0 l 407 99 l 305 0 l 201 0 q 102 68 102 0 l 102 712 l 305 712 z "},"ឋ":{"ha":814,"x_min":68,"x_max":746,"o":"m 712 203 q 407 0 712 0 q 102 203 102 0 l 102 814 q 68 882 102 882 l 68 1017 l 170 1017 q 305 916 305 1017 l 305 203 q 407 136 305 136 q 509 203 509 136 l 509 576 q 576 665 509 631 l 475 703 l 475 1017 l 610 1017 l 610 1085 l 746 1085 l 746 848 l 624 848 l 624 802 l 746 746 l 746 610 q 712 549 712 610 l 712 203 z "},"ឌ":{"ha":814,"x_min":102,"x_max":712,"o":"m 712 407 l 712 -34 l 509 -34 l 509 30 q 373 0 451 0 l 271 0 q 102 203 102 0 l 102 454 l 305 523 q 509 712 509 592 l 509 819 l 407 720 l 305 819 l 305 746 l 339 746 l 339 610 l 203 610 q 102 678 102 610 l 102 949 q 201 1017 102 1017 l 305 1017 l 407 918 l 509 1017 l 612 1017 q 712 949 712 1017 l 712 712 q 356 397 712 517 l 305 379 l 305 203 q 373 136 305 136 q 509 203 441 136 l 509 407 l 712 407 z "},"ឍ":{"ha":1221,"x_min":102,"x_max":1119,"o":"m 712 271 l 746 271 q 916 231 846 271 l 916 1017 l 1119 1017 l 1119 136 q 1017 0 1119 0 l 916 0 q 863 101 916 66 q 746 136 811 136 l 712 136 q 610 0 712 0 q 475 136 475 0 q 493 203 475 171 q 544 254 511 236 q 599 271 570 269 l 509 305 l 509 819 l 407 720 l 305 819 l 305 203 q 407 136 407 203 l 407 68 q 305 0 407 0 l 203 0 q 102 68 102 0 l 102 949 q 201 1017 102 1017 l 305 1017 l 407 918 l 509 1017 l 612 1017 q 712 949 712 1017 l 712 271 z "},"ណ":{"ha":1628,"x_min":102,"x_max":1526,"o":"m 509 814 q 407 882 509 882 q 305 814 305 882 l 305 0 l 102 0 l 102 814 q 407 1017 102 1017 q 712 814 712 1017 l 712 199 l 814 298 l 916 199 l 916 814 q 1221 1017 916 1017 q 1526 814 1526 1017 l 1526 0 l 1322 0 l 1322 814 q 1221 882 1322 882 q 1119 814 1119 882 l 1119 68 q 1019 0 1119 0 l 916 0 l 814 99 l 712 0 l 608 0 q 509 68 509 0 l 509 814 z "},"ត":{"ha":814,"x_min":102,"x_max":712,"o":"m 102 848 l 102 1017 l 712 1017 l 712 848 l 102 848 m 102 543 q 407 746 102 746 q 712 543 712 746 l 712 0 l 509 0 l 509 543 q 407 610 509 610 q 305 543 305 610 l 305 203 q 407 136 407 203 l 407 68 q 305 0 407 0 l 203 0 q 102 68 102 0 l 102 543 z "},"ថ":{"ha":814,"x_min":68,"x_max":712,"o":"m 102 576 q 170 665 102 631 l 68 717 l 68 1017 l 509 1017 l 509 1085 l 712 1085 l 712 848 l 217 848 l 217 802 l 339 746 l 339 610 q 305 549 305 610 l 305 203 q 407 136 305 136 q 509 203 509 136 l 509 576 q 407 644 407 576 l 407 678 q 509 746 407 746 l 610 746 q 712 678 712 746 l 712 203 q 407 0 712 0 q 102 203 102 0 l 102 576 z "},"ទ":{"ha":814,"x_min":102,"x_max":712,"o":"m 102 814 q 407 1017 102 1017 q 712 814 712 1017 l 712 712 q 610 644 712 644 l 475 644 l 475 780 l 509 780 l 509 814 q 407 882 509 882 q 305 814 305 882 l 305 678 q 452 557 305 591 l 545 536 q 577 564 558 551 q 617 576 596 576 l 644 576 q 712 519 712 576 l 712 437 q 642 366 712 388 l 712 332 l 712 203 q 407 0 712 0 q 102 203 102 0 l 102 420 l 305 373 l 305 203 q 407 136 305 136 q 509 203 509 136 l 509 397 l 306 448 q 102 678 102 500 l 102 814 z "},"ធ":{"ha":814,"x_min":68,"x_max":712,"o":"m 102 576 q 170 665 102 631 l 68 710 l 68 1017 l 712 1017 l 712 848 l 217 848 l 217 802 l 339 746 l 339 610 q 305 549 305 610 l 305 199 l 407 298 l 509 199 l 509 576 q 407 644 407 576 l 407 678 q 509 746 407 746 l 610 746 q 712 678 712 746 l 712 68 q 612 0 712 0 l 509 0 l 407 99 l 305 0 l 201 0 q 102 68 102 0 l 102 576 z "},"ន":{"ha":814,"x_min":102,"x_max":712,"o":"m 102 407 l 305 407 l 305 199 l 407 298 l 509 199 l 509 391 l 458 404 q 102 678 102 511 l 102 814 q 407 1017 102 1017 q 712 814 712 1017 l 712 678 q 610 610 712 610 l 475 610 l 475 746 l 509 746 l 509 814 q 407 882 509 882 q 305 814 305 882 l 305 678 q 509 530 305 585 l 712 474 l 712 68 q 612 0 712 0 l 509 0 l 407 99 l 305 0 l 201 0 q 102 68 102 0 l 102 407 z "},"ប":{"ha":814,"x_min":68,"x_max":712,"o":"m 68 1017 l 373 1017 l 373 848 l 217 848 l 217 802 l 373 746 l 373 610 q 305 549 305 610 l 305 203 q 407 136 305 136 q 509 203 509 136 l 509 1017 l 712 1017 l 712 203 q 407 0 712 0 q 102 203 102 0 l 102 576 q 170 665 102 631 l 68 690 l 68 1017 z "},"ផ":{"ha":814,"x_min":68,"x_max":712,"o":"m 305 199 l 407 298 l 509 199 l 509 576 q 407 644 407 576 l 407 678 q 509 746 407 746 l 610 746 q 712 678 712 746 l 712 68 q 612 0 712 0 l 509 0 l 407 99 l 305 0 l 201 0 q 102 68 102 0 l 102 576 q 170 665 102 631 l 68 717 l 68 1017 l 509 1017 l 509 1085 l 712 1085 l 712 848 l 217 848 l 217 802 l 339 746 l 339 610 q 305 549 305 610 l 305 199 z "},"ព":{"ha":814,"x_min":102,"x_max":712,"o":"m 407 68 q 305 0 407 0 l 203 0 q 102 68 102 0 l 102 949 q 201 1017 102 1017 l 305 1017 l 407 918 l 509 1017 l 612 1017 q 712 949 712 1017 l 712 0 l 509 0 l 509 819 l 407 720 l 305 819 l 305 203 q 407 136 407 203 l 407 68 z "},"ភ":{"ha":814,"x_min":34,"x_max":712,"o":"m 102 848 l 102 1017 l 712 1017 l 712 848 l 102 848 m 305 68 q 203 0 305 0 l 102 0 q 34 102 34 0 q 102 203 34 203 l 102 543 q 407 746 102 746 q 712 543 712 746 l 712 0 l 509 0 l 509 543 q 407 610 509 610 q 305 543 305 610 l 305 68 z "},"ម":{"ha":814,"x_min":68,"x_max":712,"o":"m 305 203 q 407 136 305 136 q 509 203 509 136 l 509 407 l 339 407 l 339 543 l 509 543 l 509 1017 l 712 1017 l 712 203 q 407 0 712 0 q 102 203 102 0 l 102 576 q 170 665 102 631 l 68 690 l 68 1017 l 373 1017 l 373 848 l 217 848 l 217 802 l 373 746 l 373 610 q 305 549 305 610 l 305 203 z "},"យ":{"ha":1221,"x_min":102,"x_max":1119,"o":"m 102 882 q 237 1017 102 1017 l 373 1017 l 373 882 q 305 814 305 882 l 305 203 q 407 136 305 136 q 509 203 509 136 l 509 1017 l 712 1017 l 712 203 q 814 136 712 136 q 916 203 916 136 l 916 1017 l 1119 1017 l 1119 203 q 814 0 1119 0 q 610 37 685 0 q 407 0 536 0 q 102 203 102 0 l 102 882 z "},"រ":{"ha":407,"x_min":34,"x_max":305,"o":"m 305 1017 l 305 136 q 170 0 305 0 l 34 0 l 34 136 q 102 203 102 136 l 102 1017 l 305 1017 z "},"ល":{"ha":1221,"x_min":102,"x_max":1119,"o":"m 712 203 q 814 136 712 136 q 916 203 916 136 l 916 1017 l 1119 1017 l 1119 203 q 814 0 1119 0 q 509 203 509 0 l 509 814 q 407 882 509 882 q 305 814 305 882 l 305 203 q 407 136 305 136 l 407 0 l 254 0 q 102 203 102 0 l 102 814 q 407 1017 102 1017 q 712 814 712 1017 l 712 203 z "},"វ":{"ha":407,"x_min":68,"x_max":339,"o":"m 102 576 q 170 665 102 631 l 68 703 l 68 1017 l 203 1017 l 203 1085 l 339 1085 l 339 848 l 217 848 l 217 802 l 339 746 l 339 610 q 305 549 305 610 l 305 136 q 186 0 305 0 l 68 0 l 68 136 q 102 203 102 136 l 102 576 z "},"ឝ":{"ha":814,"x_min":102,"x_max":780,"o":"m 102 848 l 102 1017 l 712 1017 l 712 848 l 102 848 m 509 385 l 509 543 q 407 610 509 610 q 305 543 305 610 l 305 233 l 372 357 l 462 308 l 305 18 l 305 0 l 102 0 l 102 543 q 407 746 102 746 q 712 543 712 746 l 712 385 l 780 385 l 780 249 l 712 249 l 712 0 l 509 0 l 509 249 l 475 249 l 475 385 l 509 385 z "},"ឞ":{"ha":814,"x_min":68,"x_max":780,"o":"m 712 441 l 712 203 q 407 0 712 0 q 102 203 102 0 l 102 576 q 170 665 102 631 l 68 690 l 68 1017 l 373 1017 l 373 848 l 217 848 l 217 802 l 373 746 l 373 610 q 305 549 305 610 l 305 203 q 407 136 305 136 q 509 203 509 136 l 509 441 l 475 441 l 475 576 l 509 576 l 509 1017 l 712 1017 l 712 576 l 780 576 l 780 441 l 712 441 z "},"ស":{"ha":1221,"x_min":102,"x_max":1119,"o":"m 102 848 l 102 1017 l 610 1017 l 610 848 l 102 848 m 1119 1017 l 1119 203 q 814 0 1119 0 q 509 203 509 0 l 509 543 q 407 610 509 610 q 305 543 305 610 l 305 203 q 407 136 305 136 l 407 0 l 254 0 q 102 203 102 0 l 102 543 q 407 746 102 746 q 712 543 712 746 l 712 203 q 814 136 712 136 q 916 203 916 136 l 916 1017 l 1119 1017 z "},"ហ":{"ha":1221,"x_min":68,"x_max":1119,"o":"m 305 203 q 407 136 305 136 q 509 203 509 136 l 509 814 q 814 1017 509 1017 q 1119 814 1119 1017 l 1119 0 l 916 0 l 916 814 q 814 882 916 882 q 712 814 712 882 l 712 203 q 407 0 712 0 q 102 203 102 0 l 102 576 q 170 665 102 631 l 68 690 l 68 1017 l 373 1017 l 373 848 l 217 848 l 217 802 l 373 746 l 373 610 q 305 549 305 610 l 305 203 z "},"ឡ":{"ha":1221,"x_min":102,"x_max":1119,"o":"m 102 814 q 407 1017 102 1017 q 712 814 712 1017 l 712 712 q 610 644 712 644 l 475 644 l 475 780 l 509 780 l 509 814 q 407 882 509 882 q 305 814 305 882 l 305 678 q 452 557 305 591 l 545 536 q 577 564 558 551 q 617 576 596 576 l 644 576 q 712 519 712 576 l 712 437 q 642 366 712 388 l 712 332 l 712 203 q 407 0 712 0 q 102 203 102 0 l 102 420 l 305 373 l 305 203 q 407 136 305 136 q 509 203 509 136 l 509 397 l 306 448 q 102 678 102 500 l 102 814 m 509 -271 q 475 -203 509 -203 l 475 -68 l 576 -68 q 712 -170 712 -68 l 712 -276 l 814 -177 l 916 -276 l 916 1017 l 1119 1017 l 1119 -407 q 1019 -475 1119 -475 l 916 -475 l 814 -376 l 712 -475 l 608 -475 q 509 -407 509 -475 l 509 -271 z "},"អ":{"ha":814,"x_min":34,"x_max":712,"o":"m 305 1017 l 305 136 q 170 0 305 0 l 34 0 l 34 136 q 102 203 102 136 l 102 1017 l 305 1017 m 509 576 l 509 1017 l 712 1017 l 712 136 q 576 0 712 0 l 441 0 l 441 136 q 509 203 509 136 l 509 441 l 339 441 l 339 576 l 509 576 z "},"ឣ":{"ha":814,"x_min":34,"x_max":712,"o":"m 305 1017 l 305 136 q 170 0 305 0 l 34 0 l 34 136 q 102 203 102 136 l 102 1017 l 305 1017 m 509 576 l 509 1017 l 712 1017 l 712 136 q 576 0 712 0 l 441 0 l 441 136 q 509 203 509 136 l 509 441 l 339 441 l 339 576 l 509 576 z "},"ឤ":{"ha":1221,"x_min":34,"x_max":1119,"o":"m 916 0 l 916 780 q 814 848 916 848 l 746 848 l 746 1017 l 814 1017 q 1119 814 1119 1017 l 1119 0 l 916 0 m 305 1017 l 305 136 q 170 0 305 0 l 34 0 l 34 136 q 102 203 102 136 l 102 1017 l 305 1017 m 509 576 l 509 1017 l 712 1017 l 712 136 q 576 0 712 0 l 441 0 l 441 136 q 509 203 509 136 l 509 441 l 339 441 l 339 576 l 509 576 z "},"ឥ":{"ha":814,"x_min":102,"x_max":712,"o":"m 102 543 q 407 746 102 746 q 712 543 712 746 l 712 0 l 509 0 l 509 543 q 407 610 509 610 q 305 543 305 610 l 305 203 q 407 136 407 203 l 407 68 q 305 0 407 0 l 203 0 q 102 68 102 0 l 102 543 m 102 848 l 102 1017 l 509 1017 l 509 1085 l 712 1085 l 712 848 l 102 848 z "},"ឦ":{"ha":1221,"x_min":102,"x_max":1119,"o":"m 509 1560 l 712 1560 l 712 1316 q 814 1322 758 1322 q 1119 1119 1119 1322 l 1119 -305 q 814 -475 1119 -475 q 509 -305 509 -475 l 509 -242 q 407 -170 509 -170 q 305 -242 305 -170 l 305 -305 q 407 -390 407 -305 q 305 -475 407 -475 l 203 -475 q 102 -416 102 -475 l 102 -242 q 407 -68 102 -68 q 712 -242 712 -68 l 712 -305 q 814 -373 712 -373 q 916 -305 916 -373 l 916 1119 q 814 1187 916 1187 q 712 1119 712 1187 l 509 1119 l 509 1560 m 305 203 q 407 136 407 203 l 407 68 q 305 0 407 0 l 203 0 q 102 68 102 0 l 102 814 q 407 1017 102 1017 q 712 814 712 1017 l 712 0 l 509 0 l 509 814 q 407 882 509 882 q 305 814 305 882 l 305 203 z "},"ឧ":{"ha":814,"x_min":102,"x_max":712,"o":"m 102 454 l 305 523 q 509 712 509 592 l 509 814 q 407 882 509 882 q 305 814 305 882 l 305 746 l 339 746 l 339 610 l 203 610 q 102 678 102 610 l 102 814 q 407 1017 102 1017 q 712 814 712 1017 l 712 712 q 356 397 712 517 l 305 379 l 305 203 q 373 136 305 136 q 509 203 441 136 l 509 407 l 712 407 l 712 -34 l 509 -34 l 509 30 q 373 0 451 0 l 271 0 q 102 203 102 0 l 102 454 z "},"ឨ":{"ha":814,"x_min":102,"x_max":712,"o":"m 102 454 l 305 523 q 509 712 509 592 l 509 814 q 407 882 509 882 q 305 814 305 882 l 305 746 l 339 746 l 339 610 l 203 610 q 102 678 102 610 l 102 814 q 407 1017 102 1017 q 712 814 712 1017 l 712 712 q 356 397 712 517 l 305 379 l 305 203 q 373 136 305 136 q 509 203 441 136 l 509 407 l 712 407 l 712 -34 l 509 -34 l 509 30 q 373 0 451 0 l 271 0 q 102 203 102 0 l 102 454 m 102 1119 l 102 1289 l 712 1289 l 712 1119 l 102 1119 z "},"ឩ":{"ha":814,"x_min":102,"x_max":814,"o":"m 712 407 l 814 407 l 814 -34 l 712 -34 l 712 407 m 644 -34 l 509 -34 l 509 30 q 373 0 451 0 l 271 0 q 102 203 102 0 l 102 454 l 305 523 q 509 712 509 592 l 509 814 q 407 882 509 882 q 305 814 305 882 l 305 746 l 339 746 l 339 610 l 203 610 q 102 678 102 610 l 102 814 q 407 1017 102 1017 q 712 814 712 1017 l 712 712 q 356 397 712 517 l 305 379 l 305 203 q 373 136 305 136 q 509 203 441 136 l 509 407 l 644 407 l 644 -34 z "},"ឪ":{"ha":814,"x_min":102,"x_max":712,"o":"m 102 454 l 305 523 q 509 712 509 592 l 509 814 q 407 882 509 882 q 305 814 305 882 l 305 746 l 339 746 l 339 610 l 203 610 q 102 678 102 610 l 102 814 q 407 1017 102 1017 q 712 814 712 1017 l 712 712 q 356 397 712 517 l 305 379 l 305 203 q 373 136 305 136 q 509 203 441 136 l 509 407 l 712 407 l 712 -34 l 509 -34 l 509 30 q 373 0 451 0 l 271 0 q 102 203 102 0 l 102 454 m 102 1119 l 102 1289 l 509 1289 l 509 1356 l 712 1356 l 712 1119 l 102 1119 z "},"ឫ":{"ha":814,"x_min":68,"x_max":712,"o":"m 102 -339 l 305 -339 q 509 -237 509 -339 l 407 -237 l 407 -68 l 712 -68 l 712 -237 q 305 -475 712 -475 l 102 -475 l 102 -339 m 68 1017 l 373 1017 l 373 848 l 217 848 l 217 802 l 373 746 l 373 610 q 305 549 305 610 l 305 203 q 407 136 305 136 q 509 203 509 136 l 509 1017 l 712 1017 l 712 203 q 407 0 712 0 q 102 203 102 0 l 102 576 q 170 665 102 631 l 68 690 l 68 1017 z "},"ឬ":{"ha":814,"x_min":68,"x_max":814,"o":"m 68 1017 l 373 1017 l 373 848 l 217 848 l 217 802 l 373 746 l 373 610 q 305 549 305 610 l 305 203 q 407 136 305 136 q 509 203 509 136 l 509 1017 l 712 1017 l 712 203 q 407 0 712 0 q 102 203 102 0 l 102 576 q 170 665 102 631 l 68 690 l 68 1017 m 696 -322 q 746 -339 717 -339 l 814 -339 l 814 -475 l 746 -475 q 597 -422 653 -475 q 305 -475 496 -475 l 102 -475 l 102 -339 l 305 -339 q 509 -237 509 -339 l 407 -237 l 407 -68 l 712 -68 l 712 -237 q 696 -322 712 -284 z "},"ឭ":{"ha":814,"x_min":102,"x_max":712,"o":"m 407 68 q 305 0 407 0 l 203 0 q 102 68 102 0 l 102 949 q 201 1017 102 1017 l 305 1017 l 407 918 l 509 1017 l 612 1017 q 712 949 712 1017 l 712 0 l 509 0 l 509 819 l 407 720 l 305 819 l 305 203 q 407 136 407 203 l 407 68 m 102 -339 l 305 -339 q 509 -237 509 -339 l 407 -237 l 407 -68 l 712 -68 l 712 -237 q 305 -475 712 -475 l 102 -475 l 102 -339 z "},"ឮ":{"ha":814,"x_min":102,"x_max":814,"o":"m 407 68 q 305 0 407 0 l 203 0 q 102 68 102 0 l 102 949 q 201 1017 102 1017 l 305 1017 l 407 918 l 509 1017 l 612 1017 q 712 949 712 1017 l 712 0 l 509 0 l 509 819 l 407 720 l 305 819 l 305 203 q 407 136 407 203 l 407 68 m 696 -322 q 746 -339 717 -339 l 814 -339 l 814 -475 l 746 -475 q 597 -422 653 -475 q 305 -475 496 -475 l 102 -475 l 102 -339 l 305 -339 q 509 -237 509 -339 l 407 -237 l 407 -68 l 712 -68 l 712 -237 q 696 -322 712 -284 z "},"ឯ":{"ha":814,"x_min":68,"x_max":712,"o":"m 712 68 q 612 0 712 0 l 509 0 l 407 99 l 305 0 l 201 0 q 102 68 102 0 l 102 475 q 68 543 102 543 l 68 678 l 170 678 q 305 576 305 678 l 305 199 l 407 298 l 509 199 l 509 814 q 407 882 509 882 q 305 814 305 882 l 102 814 l 102 1255 l 305 1255 l 305 1010 q 407 1017 351 1017 q 712 814 712 1017 l 712 68 z "},"ឰ":{"ha":814,"x_min":102,"x_max":712,"o":"m 398 -212 q 271 -274 320 -254 q 317 -319 271 -319 q 398 -212 351 -319 m 408 -205 q 481 -305 459 -305 q 509 -251 509 -305 l 509 -138 q 408 -205 459 -176 m 712 -34 l 712 -271 q 573 -475 712 -475 q 417 -393 481 -475 q 232 -475 363 -475 q 102 -339 102 -475 l 102 -203 q 509 -34 348 -203 l 712 -34 m 407 68 q 305 0 407 0 l 203 0 q 102 68 102 0 l 102 949 q 201 1017 102 1017 l 305 1017 l 407 918 l 509 1017 l 612 1017 q 712 949 712 1017 l 712 0 l 509 0 l 509 819 l 407 720 l 305 819 l 305 203 q 407 136 407 203 l 407 68 z "},"ឱ":{"ha":814,"x_min":102,"x_max":712,"o":"m 102 454 l 305 523 q 509 712 509 592 l 509 814 q 407 882 509 882 q 305 814 305 882 l 305 746 l 339 746 l 339 610 l 203 610 q 102 678 102 610 l 102 814 q 407 1017 102 1017 q 712 814 712 1017 l 712 712 q 356 397 712 517 l 305 379 l 305 203 q 373 136 305 136 q 509 203 441 136 l 509 407 l 712 407 l 712 -34 l 509 -34 l 509 30 q 373 0 451 0 l 271 0 q 102 203 102 0 l 102 454 m 712 1289 l 712 1051 l 509 1051 l 509 1119 l 102 1119 l 102 1289 l 712 1289 z "},"ឲ":{"ha":814,"x_min":102,"x_max":746,"o":"m 102 814 q 407 1017 102 1017 l 610 1017 l 610 882 l 407 882 q 305 814 305 882 l 305 203 q 407 136 305 136 q 509 203 509 136 l 509 312 q 441 373 509 373 l 441 509 l 597 565 l 597 610 l 441 610 l 441 780 l 746 780 l 746 452 l 644 427 q 712 339 712 393 l 712 203 q 407 0 712 0 q 102 203 102 0 l 102 814 z "},"ឳ":{"ha":814,"x_min":102,"x_max":712,"o":"m 102 454 l 305 523 q 509 712 509 592 l 509 814 q 407 882 509 882 q 305 814 305 882 l 305 746 l 339 746 l 339 610 l 203 610 q 102 678 102 610 l 102 814 q 407 1017 102 1017 q 712 814 712 1017 l 712 712 q 356 397 712 517 l 305 379 l 305 203 q 373 136 305 136 q 509 203 441 136 l 509 407 l 712 407 l 712 -34 l 509 -34 l 509 30 q 373 0 451 0 l 271 0 q 102 203 102 0 l 102 454 m 305 1119 l 305 1051 l 102 1051 l 102 1289 l 509 1289 l 509 1356 l 712 1356 l 712 1119 l 305 1119 z "},"ា":{"ha":407,"x_min":-68,"x_max":305,"o":"m 102 0 l 102 780 q 0 848 102 848 l -68 848 l -68 1017 l 0 1017 q 305 814 305 1017 l 305 0 l 102 0 z "},"ិ":{"ha":0,"x_min":-712,"x_max":-102,"o":"m -712 1187 l -712 1289 q -644 1356 -712 1356 l -373 1356 q -102 1255 -292 1356 l -102 1187 l -712 1187 z "},"ី":{"ha":0,"x_min":-712,"x_max":-102,"o":"m -237 1320 l -237 1458 l -102 1458 l -102 1187 l -712 1187 l -712 1289 q -644 1356 -712 1356 l -373 1356 q -237 1320 -324 1356 z "},"ឹ":{"ha":0,"x_min":-712,"x_max":-102,"o":"m -304 1344 q -305 1356 -305 1350 q -291 1408 -305 1383 q -253 1445 -277 1432 q -203 1458 -229 1458 q -153 1445 -178 1458 q -115 1408 -129 1432 q -102 1356 -102 1383 q -115 1305 -102 1329 q -140 1275 -124 1287 q -102 1255 -121 1265 l -102 1187 l -712 1187 l -712 1289 q -644 1356 -712 1356 l -373 1356 q -304 1344 -345 1356 z "},"ឺ":{"ha":0,"x_min":-712,"x_max":-102,"o":"m -271 1329 q -203 1300 -241 1318 l -203 1458 l -102 1458 l -102 1187 l -712 1187 l -712 1289 q -644 1356 -712 1356 l -373 1356 l -373 1458 l -271 1458 l -271 1329 z "},"ុ":{"ha":0,"x_min":-305,"x_max":-102,"o":"m -102 -68 l -102 -475 l -305 -475 l -305 -68 l -102 -68 z "},"ូ":{"ha":0,"x_min":-543,"x_max":-102,"o":"m -543 -68 l -407 -68 l -407 -339 q -356 -373 -407 -373 q -305 -339 -305 -373 l -305 -68 l -102 -68 l -102 -339 q -356 -475 -102 -475 q -543 -339 -543 -475 l -543 -68 z "},"ួ":{"ha":0,"x_min":-576,"x_max":-102,"o":"m -576 -68 l -441 -68 l -441 -346 l -373 -258 l -305 -346 l -305 -68 l -102 -68 l -102 -407 q -203 -475 -102 -475 l -305 -475 l -373 -387 l -441 -475 l -509 -475 q -576 -407 -576 -475 l -576 -68 z "},"ើ":{"ha":0,"x_min":-712,"x_max":-102,"o":"m -237 1320 l -237 1458 l -102 1458 l -102 1187 l -712 1187 l -712 1289 q -644 1356 -712 1356 l -373 1356 q -237 1320 -324 1356 z "},"ឿ":{"ha":407,"x_min":-407,"x_max":305,"o":"m 305 -271 q 0 -475 305 -475 q -305 -271 -305 -475 l -305 -68 l -102 -68 l -102 -271 q 0 -339 -102 -339 q 102 -271 102 -339 l 102 1119 q 0 1187 102 1187 l -407 1187 l -407 1289 q -339 1356 -407 1356 l -68 1356 l -68 1458 l 34 1458 l 34 1329 q 56 1320 44 1325 q 102 1316 80 1319 l 102 1458 l 203 1458 l 203 1286 q 305 1119 305 1236 l 305 -271 z "},"ៀ":{"ha":407,"x_min":-305,"x_max":305,"o":"m 305 -271 q 0 -475 305 -475 q -305 -271 -305 -475 l -305 -68 l -102 -68 l -102 -271 q 0 -339 -102 -339 q 102 -271 102 -339 l 102 1153 q 0 1221 102 1221 q -102 1153 -102 1221 l -305 1153 l -305 1594 l -102 1594 l -102 1350 q 0 1356 -56 1356 q 305 1153 305 1356 l 305 -271 z "},"េ":{"ha":407,"x_min":102,"x_max":373,"o":"m 305 1017 l 305 203 q 373 136 305 136 l 373 0 l 237 0 q 102 136 102 0 l 102 1017 l 305 1017 z "},"ែ":{"ha":407,"x_min":0,"x_max":373,"o":"m 305 1017 l 305 203 q 373 136 305 136 l 373 0 l 237 0 q 102 136 102 0 l 102 1017 l 305 1017 m 0 1119 l 0 1289 l 102 1289 l 102 1560 l 305 1560 l 305 1119 l 0 1119 z "},"ៃ":{"ha":407,"x_min":102,"x_max":373,"o":"m 204 1221 l 204 1289 l 102 1289 l 102 1594 l 298 1594 l 298 1424 l 373 1424 l 373 1119 l 102 1119 l 102 1221 l 204 1221 m 305 1017 l 305 203 q 373 136 305 136 l 373 0 l 237 0 q 102 136 102 0 l 102 1017 l 305 1017 z "},"ោ":{"ha":407,"x_min":-68,"x_max":305,"o":"m 102 0 l 102 780 q 0 848 102 848 l -68 848 l -68 1017 l 0 1017 q 305 814 305 1017 l 305 0 l 102 0 z "},"ៅ":{"ha":407,"x_min":-68,"x_max":305,"o":"m 102 0 l 102 780 q 0 848 102 848 l -68 848 l -68 1017 l 0 1017 q 305 814 305 1017 l 305 0 l 102 0 m 305 1492 l 305 1085 l 102 1085 l 102 1322 l 0 1322 l 0 1492 l 305 1492 z "},"ំ":{"ha":0,"x_min":-610,"x_max":-203,"o":"m -407 1390 q -440 1381 -424 1390 q -466 1356 -456 1373 q -475 1322 -475 1340 q -466 1289 -475 1305 q -440 1263 -456 1272 q -407 1255 -424 1255 q -373 1263 -389 1255 q -348 1289 -357 1272 q -339 1322 -339 1305 q -348 1356 -339 1340 q -373 1381 -357 1373 q -407 1390 -389 1390 m -407 1526 q -307 1500 -355 1526 q -231 1424 -258 1474 q -203 1322 -203 1375 q -230 1221 -203 1270 q -306 1146 -257 1173 q -407 1119 -354 1119 q -508 1146 -459 1119 q -583 1221 -556 1173 q -610 1322 -610 1270 q -583 1424 -610 1375 q -507 1500 -555 1474 q -407 1526 -458 1526 z "},"ះ":{"ha":610,"x_min":102,"x_max":509,"o":"m 305 271 q 272 262 288 271 q 247 237 256 254 q 237 203 237 221 q 246 170 237 186 q 271 144 255 153 q 305 136 288 136 q 339 144 323 136 q 364 170 355 153 q 373 203 373 186 q 364 237 373 221 q 338 262 355 254 q 305 271 322 271 m 305 407 q 405 381 356 407 q 481 306 454 355 q 509 203 509 256 q 482 102 509 151 q 407 27 455 54 q 305 0 358 0 q 204 27 252 0 q 129 102 155 54 q 102 203 102 151 q 129 306 102 256 q 205 381 157 355 q 305 407 254 407 m 305 882 q 272 873 288 882 q 247 848 256 864 q 237 814 237 831 q 246 780 237 796 q 271 755 255 764 q 305 746 288 746 q 339 755 323 746 q 364 780 355 764 q 373 814 373 796 q 364 848 373 831 q 338 873 355 864 q 305 882 322 882 m 305 1017 q 405 991 356 1017 q 481 916 454 965 q 509 814 509 867 q 482 712 509 761 q 407 637 455 664 q 305 610 358 610 q 204 637 252 610 q 129 712 155 664 q 102 814 102 761 q 129 916 102 867 q 205 991 157 965 q 305 1017 254 1017 z "},"ៈ":{"ha":407,"x_min":102,"x_max":305,"o":"m 203 305 q 253 292 229 305 q 291 254 277 279 q 305 203 305 230 q 292 153 305 177 q 254 115 278 129 q 203 102 230 102 q 153 115 177 102 q 115 153 129 129 q 102 203 102 177 q 115 254 102 230 q 153 292 129 279 q 203 305 178 305 m 203 916 q 253 902 229 916 q 291 865 277 889 q 305 814 305 840 q 292 763 305 787 q 254 726 278 739 q 203 712 230 712 q 153 726 177 712 q 115 763 129 739 q 102 814 102 787 q 115 865 102 840 q 153 902 129 889 q 203 916 178 916 z "},"៉":{"ha":0,"x_min":-593,"x_max":-220,"o":"m -593 1119 l -593 1526 l -458 1526 l -458 1119 l -593 1119 m -356 1119 l -356 1526 l -220 1526 l -220 1119 l -356 1119 z "},"៊":{"ha":0,"x_min":-712,"x_max":-102,"o":"m -712 1085 l -712 1255 l -454 1255 l -407 1221 l -359 1255 l -102 1255 l -102 1085 l -712 1085 z "},"់":{"ha":0,"x_min":-475,"x_max":-339,"o":"m -475 1119 l -475 1526 l -339 1526 l -339 1119 l -475 1119 z "},"៌":{"ha":0,"x_min":-678,"x_max":-136,"o":"m -456 1212 q -345 1219 -394 1219 q -136 1119 -161 1219 l -323 1119 q -377 1144 -323 1144 q -488 1131 -418 1144 q -491 1119 -491 1129 l -678 1119 l -678 1322 l -415 1322 q -322 1424 -322 1322 l -136 1424 l -136 1322 q -305 1255 -136 1255 q -456 1212 -410 1255 z "},"៍":{"ha":0,"x_min":-678,"x_max":-136,"o":"m -492 1194 l -404 1194 l -404 1119 l -678 1119 l -678 1322 l -415 1322 q -322 1424 -322 1322 l -136 1424 l -136 1322 q -305 1255 -136 1255 l -492 1255 l -492 1194 z "},"៎":{"ha":0,"x_min":-610,"x_max":-203,"o":"m -339 1390 l -203 1390 l -203 1255 l -339 1255 l -339 1119 l -475 1119 l -475 1255 l -610 1255 l -610 1390 l -475 1390 l -475 1526 l -339 1526 l -339 1390 z "},"៏":{"ha":0,"x_min":-678,"x_max":-136,"o":"m -678 1390 l -417 1390 q -324 1458 -324 1390 l -136 1458 l -136 1390 q -304 1322 -136 1322 l -489 1322 l -489 1200 l -407 1259 l -324 1200 l -324 1268 l -136 1268 l -136 1119 l -324 1119 l -408 1178 l -488 1119 l -489 1120 l -489 1119 l -678 1119 l -678 1390 z "},"័":{"ha":0,"x_min":-543,"x_max":0,"o":"m -543 1356 l -305 1356 l -305 1289 l -373 1289 l -373 1255 l -170 1255 l -170 1390 l 0 1390 l 0 1221 q -136 1119 0 1119 l -543 1119 l -543 1356 z "},"៑":{"ha":0,"x_min":-712,"x_max":-102,"o":"m -712 1119 l -712 1289 l -102 1289 l -102 1119 l -712 1119 z "},"្":{"ha":0,"x_min":-610,"x_max":-203,"o":"m -339 -203 l -203 -203 l -203 -339 l -339 -339 l -339 -475 l -475 -475 l -475 -339 l -610 -339 l -610 -203 l -475 -203 l -475 -68 l -339 -68 l -339 -203 z "},"៓":{"ha":0,"x_min":-712,"x_max":-102,"o":"m -406 1436 q -445 1425 -426 1436 q -475 1396 -464 1415 q -486 1356 -486 1377 q -475 1317 -486 1336 q -445 1288 -464 1298 q -406 1277 -426 1277 q -366 1288 -385 1277 q -337 1317 -347 1298 q -327 1356 -327 1336 q -338 1396 -327 1377 q -367 1425 -349 1415 q -406 1436 -385 1436 m -407 1594 q -256 1563 -329 1594 q -143 1475 -184 1533 q -102 1356 -102 1418 q -141 1238 -102 1295 q -254 1150 -181 1181 q -407 1119 -328 1119 q -557 1150 -485 1119 q -671 1238 -630 1181 q -712 1356 -712 1295 q -671 1475 -712 1418 q -556 1563 -629 1533 q -407 1594 -484 1594 z "},"។":{"ha":814,"x_min":102,"x_max":712,"o":"m 102 1017 l 305 1017 l 305 895 q 509 1017 368 895 l 712 1017 l 712 0 l 509 0 l 509 845 q 305 746 409 746 l 102 746 l 102 1017 z "},"៕":{"ha":1119,"x_min":102,"x_max":1017,"o":"m 814 1017 l 1017 1017 l 1017 0 l 814 0 l 814 1017 m 102 1017 l 305 1017 l 305 895 q 509 1017 368 895 l 712 1017 l 712 0 l 509 0 l 509 845 q 305 746 409 746 l 102 746 l 102 1017 z "},"៖":{"ha":610,"x_min":34,"x_max":576,"o":"m 305 271 q 272 262 288 271 q 247 237 256 254 q 237 203 237 221 q 246 170 237 186 q 271 144 255 153 q 305 136 288 136 q 339 144 323 136 q 364 170 355 153 q 373 203 373 186 q 364 237 373 221 q 338 262 355 254 q 305 271 322 271 m 305 407 q 405 381 356 407 q 481 306 454 355 q 509 203 509 256 q 482 102 509 151 q 407 27 455 54 q 305 0 358 0 q 204 27 252 0 q 129 102 155 54 q 102 203 102 151 q 129 306 102 256 q 205 381 157 355 q 305 407 254 407 m 305 882 q 272 873 288 882 q 247 848 256 864 q 237 814 237 831 q 246 780 237 796 q 271 755 255 764 q 305 746 288 746 q 339 755 323 746 q 364 780 355 764 q 373 814 373 796 q 364 848 373 831 q 338 873 355 864 q 305 882 322 882 m 305 1017 q 405 991 356 1017 q 481 916 454 965 q 509 814 509 867 q 482 712 509 761 q 407 637 455 664 q 305 610 358 610 q 204 637 252 610 q 129 712 155 664 q 102 814 102 761 q 129 916 102 867 q 205 991 157 965 q 305 1017 254 1017 m 34 475 l 34 543 l 576 543 l 576 475 l 34 475 z "},"ៗ":{"ha":814,"x_min":102,"x_max":712,"o":"m 102 1017 l 305 1017 l 407 922 l 509 1017 l 712 1017 l 712 0 l 509 0 l 509 841 l 407 746 l 305 841 l 305 746 l 102 746 l 102 1017 z "},"៘":{"ha":2848,"x_min":102,"x_max":2747,"o":"m 102 1017 l 305 1017 l 305 895 q 509 1017 368 895 l 712 1017 l 712 0 l 509 0 l 509 845 q 305 746 409 746 l 102 746 l 102 1017 m 1526 203 q 1628 136 1526 136 q 1729 203 1729 136 l 1729 1017 l 1933 1017 l 1933 203 q 1628 0 1933 0 q 1322 203 1322 0 l 1322 814 q 1221 882 1322 882 q 1119 814 1119 882 l 1119 203 q 1221 136 1119 136 l 1221 0 l 1068 0 q 916 203 916 0 l 916 814 q 1221 1017 916 1017 q 1526 814 1526 1017 l 1526 203 m 2136 1017 l 2340 1017 l 2340 895 q 2543 1017 2403 895 l 2747 1017 l 2747 0 l 2543 0 l 2543 845 q 2340 746 2443 746 l 2136 746 l 2136 1017 z "},"៙":{"ha":949,"x_min":102,"x_max":848,"o":"m 475 0 q 102 509 102 0 q 475 1017 102 1017 q 848 509 848 1017 q 475 0 848 0 m 475 932 q 195 509 195 932 q 475 85 195 85 q 755 509 755 85 q 475 932 755 932 m 475 170 q 288 509 288 170 q 475 848 288 848 q 661 509 661 848 q 475 170 661 170 m 475 763 q 382 509 382 763 q 475 254 382 254 q 568 509 568 254 q 475 763 568 763 z "},"៚":{"ha":1899,"x_min":102,"x_max":1797,"o":"m 356 1017 q 613 739 613 1017 q 401 555 613 555 q 358 601 358 555 q 401 647 358 647 q 526 740 526 647 q 358 925 526 925 q 186 740 186 925 l 186 277 q 358 90 186 90 q 528 192 443 90 q 698 507 613 294 l 865 922 l 950 922 l 1162 248 l 1289 829 l 1373 829 l 1501 346 l 1586 553 l 1756 553 q 1797 507 1797 553 q 1756 460 1797 460 l 1628 460 l 1544 185 l 1458 185 l 1331 647 l 1204 92 l 1120 92 l 907 808 l 766 460 q 356 0 578 0 q 102 277 102 0 l 102 740 q 356 1017 102 1017 z "},"៛":{"ha":407,"x_min":0,"x_max":407,"o":"m 102 441 l 0 441 l 0 576 l 102 576 l 102 1017 l 305 1017 l 305 576 l 407 576 l 407 441 l 305 441 l 305 136 q 170 0 305 0 l 34 0 l 34 136 q 102 203 102 136 l 102 441 z "},"០":{"ha":814,"x_min":102,"x_max":712,"o":"m 305 203 q 407 136 305 136 q 509 203 509 136 l 509 814 q 407 882 509 882 q 305 814 305 882 l 305 203 m 102 882 q 271 1017 102 1017 l 543 1017 q 712 882 712 1017 l 712 136 q 543 0 712 0 l 271 0 q 102 136 102 0 l 102 882 z "},"១":{"ha":814,"x_min":102,"x_max":712,"o":"m 509 814 q 407 882 509 882 q 305 814 305 882 l 305 543 l 407 543 l 407 407 l 271 407 q 102 549 102 407 l 102 882 q 271 1017 102 1017 l 543 1017 q 712 882 712 1017 l 712 203 q 543 0 712 0 l 271 0 l 271 136 l 407 136 q 509 203 509 136 l 509 814 z "},"២":{"ha":1017,"x_min":34,"x_max":916,"o":"m 916 136 q 746 0 916 0 l 271 0 q 102 136 102 0 l 102 983 q 34 1051 102 1051 l 34 1187 l 170 1187 q 305 1085 305 1187 l 305 203 q 407 136 305 136 l 610 136 q 712 203 712 136 l 712 836 l 644 751 l 576 836 l 576 644 l 610 644 l 610 512 l 373 512 l 373 1017 l 576 1017 l 644 933 l 712 1017 l 916 1017 l 916 136 z "},"៣":{"ha":1221,"x_min":102,"x_max":1119,"o":"m 509 0 l 509 814 q 407 882 509 882 q 305 814 305 882 l 305 203 q 407 136 407 203 l 407 68 q 305 0 407 0 l 203 0 q 102 68 102 0 l 102 814 q 407 1017 102 1017 q 610 981 536 1017 q 814 1017 685 1017 q 1119 814 1119 1017 l 1119 0 l 916 0 l 916 814 q 814 882 916 882 q 712 814 712 882 l 712 0 l 509 0 z "},"៤":{"ha":814,"x_min":34,"x_max":712,"o":"m 305 237 q 427 136 305 136 l 529 136 l 407 270 l 407 543 q 441 636 407 593 q 543 678 475 678 l 712 678 l 712 543 l 610 543 l 610 236 l 712 136 l 712 0 l 305 0 q 153 42 203 0 q 102 170 102 85 l 102 983 q 34 1051 102 1051 l 34 1187 l 170 1187 q 305 1085 305 1187 l 305 237 z "},"៥":{"ha":814,"x_min":102,"x_max":712,"o":"m 102 746 l 216 818 q 178 832 197 823 q 122 882 142 850 q 102 949 102 914 q 220 1085 102 1085 q 339 949 339 1085 l 339 916 l 441 916 q 509 983 509 916 l 509 1153 l 712 1153 l 712 916 q 576 780 712 780 l 305 780 l 305 237 q 407 136 305 136 l 536 136 l 407 270 l 407 509 q 441 602 407 559 q 543 644 475 644 l 712 644 l 712 509 l 610 509 l 610 236 l 712 136 l 712 0 l 305 0 q 153 43 203 0 q 102 170 102 85 l 102 746 z "},"៦":{"ha":814,"x_min":102,"x_max":712,"o":"m 712 136 q 543 0 712 0 l 271 0 q 102 136 102 0 l 102 468 q 271 610 102 610 l 407 610 l 407 475 l 305 475 l 305 203 q 407 136 305 136 q 509 203 509 136 l 509 814 q 407 882 509 882 q 305 814 305 882 l 102 814 l 102 1255 l 305 1255 l 305 1017 l 543 1017 q 712 882 712 1017 l 712 136 z "},"៧":{"ha":1119,"x_min":102,"x_max":1017,"o":"m 712 203 q 763 136 712 136 q 814 203 814 136 l 814 1221 l 1017 1221 l 1017 136 q 848 0 1017 0 l 678 0 q 509 136 509 0 l 509 819 l 407 720 l 305 819 l 305 203 q 407 136 407 203 l 407 68 q 305 0 407 0 l 203 0 q 102 68 102 0 l 102 949 q 201 1017 102 1017 l 305 1017 l 407 918 l 509 1017 l 612 1017 q 712 949 712 1017 l 712 203 z "},"៨":{"ha":814,"x_min":102,"x_max":712,"o":"m 102 882 q 271 1017 102 1017 l 509 1017 l 509 1255 l 712 1255 l 712 814 l 509 814 q 407 882 509 882 q 305 814 305 882 l 305 199 l 407 298 l 509 199 l 509 441 q 459 454 483 441 q 421 492 435 467 q 407 543 407 516 q 420 593 407 569 q 458 631 434 617 q 509 644 482 644 l 622 644 q 712 543 712 644 l 712 68 q 612 0 712 0 l 509 0 l 407 99 l 305 0 l 201 0 q 102 68 102 0 l 102 882 z "},"៩":{"ha":814,"x_min":102,"x_max":712,"o":"m 610 543 l 407 543 q 305 475 305 543 l 305 203 q 407 136 305 136 q 509 203 509 136 l 509 237 q 459 251 483 237 q 421 288 435 264 q 407 339 407 313 q 420 390 407 366 q 458 427 434 414 q 509 441 482 441 l 588 441 q 712 339 712 441 l 712 136 q 543 0 712 0 l 271 0 q 102 136 102 0 l 102 543 q 175 627 128 595 q 102 712 128 659 l 102 882 q 271 1017 102 1017 l 509 1017 l 509 1255 l 712 1255 l 712 814 l 509 814 q 407 882 509 882 q 305 814 305 882 l 305 780 q 407 712 305 712 l 610 712 l 610 543 z "},"​":{"ha":1,"x_min":0,"x_max":0,"o":""}}}
